:SAMPLES-PER-SECOND 30
:FULLY-SPECIFIED
:DEGREES
215
root  -12.3854 35.0039 58.9328 -151.498 43.2956 -160.332
RightUpLeg  -43.4827 -30.3336 34.0571
RightLeg  44.6691 -7.65869 -8.57547
RightFoot  -26.262 -0.268931 -1.58699
RightToes  -5.82094e-011 -1.98785e-016 -5.10186e-018
Spine  23.2822 -5.87911 -26.3678
Spine1  -0.856245 -21.7839 45.6105
HEad  -27.009 -49.6629 37.759
LeftShoulder1  2.36277 -15.9921 -4.14326
LeftArm  34.7542 -40.1616 -86.4868
LeftForeArm  67.4721 -47.3165 -7.62959
LeftHand  0.0853498 -2.75258 -1.00667
RightShoulder  1.99373 2.83662 25.4098
RightArm  7.62587 -27.7136 39.6682
RightForeArm  22.4455 23.0445 3.75118
RightHand  -1.57349 10.9217 -11.5429
LeftUpLeg  2.31383 37.9035 -1.25173
LeftLeg  31.928 -22.452 -13.8385
LeftFoot  -1.15433 0.18948 -1.9946
LeftToes  -8.4584e-011 5.90861e-011 8.40072e-012
216
root  -12.6079 34.2099 57.2927 -149.478 45.569 -156.583
RightUpLeg  -41.3856 -22.1252 29.2971
RightLeg  51.1202 -11.1261 -14.6596
RightFoot  -28.5727 0.373127 3.82163
RightToes  -5.82094e-011 -1.98785e-016 -5.10186e-018
Spine  24.558 -5.49673 -20.9863
Spine1  -1.10372 -19.8242 43.3385
HEad  -29.9868 -48.7282 37.4625
LeftShoulder1  2.52553 -15.9756 -5.1247
LeftArm  30.0365 -36.9317 -83.2274
LeftForeArm  69.2376 -48.5301 -7.97786
LeftHand  0.115679 -1.81312 -1.72873
RightShoulder  2.21437 3.43038 25.919
RightArm  6.91561 -26.444 38.5737
RightForeArm  18.7104 21.5461 3.89698
RightHand  -1.55195 11.4417 -11.0558
LeftUpLeg  -5.58865 34.0682 -0.461577
LeftLeg  49.5284 -17.1872 -19.6396
LeftFoot  7.40989 1.53514 -9.41531
LeftToes  -8.4584e-011 5.90861e-011 8.40072e-012
217
root  -12.8353 33.5035 55.4373 -144.917 48.3881 -148.861
RightUpLeg  -38.4585 -19.7062 28.1417
RightLeg  54.528 -9.41955 -14.2309
RightFoot  -28.4733 0.547291 4.90422
RightToes  -5.82094e-011 -1.98785e-016 -5.10186e-018
Spine  25.0456 -5.68201 -14.3239
Spine1  0.972451 -18.3613 39.9227
HEad  -30.6052 -47.1435 34.9021
LeftShoulder1  2.86595 -14.5818 -8.34046
LeftArm  24.7039 -32.8652 -75.9172
LeftForeArm  71.0053 -51.9247 -9.15431
LeftHand  0.167071 -0.729395 -3.1169
RightShoulder  2.63643 4.72686 26.0065
RightArm  9.0463 -21.4945 36.9088
RightForeArm  15.2811 19.2537 4.37718
RightHand  -1.79779 11.3018 -12.8167
LeftUpLeg  -13.0578 28.6421 2.63023
LeftLeg  65.0151 -7.40816 -16.042
LeftFoot  12.7617 2.8303 -13.6433
LeftToes  -8.4584e-011 5.90861e-011 8.40072e-012
218
root  -12.8472 33.3366 53.174 -141.224 52.1629 -144.025
RightUpLeg  -35.033 -20.4576 23.9755
RightLeg  54.9448 -5.9949 -9.5138
RightFoot  -28.8477 0.801274 6.47438
RightToes  -5.82094e-011 -1.98785e-016 -5.10186e-018
Spine  24.7673 -5.58666 -12.1493
Spine1  1.73912 -17.3347 37.839
HEad  -28.4512 -47.287 31.4574
LeftShoulder1  2.98919 -13.1232 -10.7319
LeftArm  19.2898 -25.931 -68.6878
LeftForeArm  74.2469 -55.784 -10.6636
LeftHand  0.228099 -0.409826 -4.52065
RightShoulder  2.79538 5.2206 26.0124
RightArm  10.1814 -17.5882 34.9812
RightForeArm  15.0721 20.5921 4.37173
RightHand  -2.2721 10.998 -16.3656
LeftUpLeg  -20.7747 19.5047 3.49197
LeftLeg  79.0987 -1.68323 -9.40599
LeftFoot  7.75862 1.46645 -8.97619
LeftToes  -8.4584e-011 5.90861e-011 8.40072e-012
219
root  -12.7914 33.4409 50.6453 -136.497 56.4125 -137.995
RightUpLeg  -30.3202 -21.1277 18.5148
RightLeg  53.0728 -2.29952 -3.71904
RightFoot  -27.3637 0.958907 8.12847
RightToes  -5.82094e-011 -1.98785e-016 -5.10186e-018
Spine  24.6309 -5.42561 -9.1172
Spine1  1.42457 -15.2632 34.5517
HEad  -25.5683 -47.8654 28.2932
LeftShoulder1  2.79521 -10.8229 -12.4457
LeftArm  16.4168 -17.9219 -63.5491
LeftForeArm  75.411 -59.2801 -12.4212
LeftHand  0.348 -0.920466 -6.37013
RightShoulder  2.74987 5.27187 25.2785
RightArm  7.42187 -17.057 33.8585
RightForeArm  18.0326 27.7768 4.9736
RightHand  -2.53611 10.0582 -19.2244
LeftUpLeg  -26.5692 10.1481 6.33969
LeftLeg  89.7465 -0.121699 -4.47845
LeftFoot  5.51909 0.385475 -2.8606
LeftToes  -8.4584e-011 5.90861e-011 8.40072e-012
220
root  -12.5256 34.0151 47.83 -130.474 61.864 -130.76
RightUpLeg  -23.9126 -19.1688 11.2566
RightLeg  47.5114 1.24501 1.12131
RightFoot  -23.9137 1.0412 10.8738
RightToes  -5.82094e-011 -1.98785e-016 -5.10186e-018
Spine  23.5705 -4.96871 -7.51653
Spine1  1.93831 -13.2835 30.5395
HEad  -22.2493 -47.7936 25.4419
LeftShoulder1  2.47364 -8.40892 -13.7991
LeftArm  13.9595 -9.71802 -59.1288
LeftForeArm  76.5793 -61.9961 -14.0626
LeftHand  0.467972 -0.67014 -8.92439
RightShoulder  2.70879 5.44131 24.1611
RightArm  3.89156 -17.4602 33.5579
RightForeArm  25.6464 37.6884 7.10005
RightHand  -2.3088 9.50885 -18.1902
LeftUpLeg  -29.9594 1.62271 9.87747
LeftLeg  95.234 -0.295525 0.400565
LeftFoot  3.52749 -0.285689 2.036
LeftToes  -8.4584e-011 5.90861e-011 8.40072e-012
221
root  -12.1013 35.0536 44.8628 -120.518 69.1531 -119.287
RightUpLeg  -16.3219 -14.2455 2.25533
RightLeg  37.7898 5.02705 3.82815
RightFoot  -17.3604 0.659381 14.9261
RightToes  -5.82094e-011 -1.98785e-016 -5.10186e-018
Spine  22.7184 -3.65536 -8.3759
Spine1  2.93834 -11.039 25.4081
HEad  -19.0844 -46.4329 24.4166
LeftShoulder1  2.18528 -6.54105 -14.961
LeftArm  11.1314 -1.36714 -55.1069
LeftForeArm  79.1248 -63.827 -15.2364
LeftHand  0.424533 0.056165 -9.302
RightShoulder  2.64787 5.40152 23.5919
RightArm  2.96475 -16.9026 34.7859
RightForeArm  30.4854 46.093 9.44843
RightHand  -2.15305 9.33872 -17.1958
LeftUpLeg  -29.3932 -4.44336 11.3512
LeftLeg  94.0923 -0.746679 4.79911
LeftFoot  1.52104 -0.839495 7.34813
LeftToes  -8.4584e-011 5.90861e-011 8.40072e-012
222
root  -11.6199 36.255 41.761 -94.112 74.5702 -91.8819
RightUpLeg  -10.8031 -8.89356 -5.1492
RightLeg  25.0912 9.84905 4.77983
RightFoot  -3.96692 -1.51112 20.7402
RightToes  -5.82094e-011 -1.98785e-016 -5.10186e-018
Spine  21.9885 -2.54234 -7.42471
Spine1  2.32371 -7.87101 18.119
HEad  -13.9815 -44.4224 22.4215
LeftShoulder1  1.89584 -4.36967 -17.4117
LeftArm  8.49718 6.57086 -50.8524
LeftForeArm  81.4399 -64.4408 -15.5826
LeftHand  0.437377 -0.23379 -9.02744
RightShoulder  2.73258 5.88406 22.922
RightArm  3.88765 -16.2184 37.4838
RightForeArm  32.0693 51.2726 11.46
RightHand  -2.09254 9.19965 -16.8847
LeftUpLeg  -26.0763 -8.00788 11.8363
LeftLeg  87.7495 -0.246289 7.99861
LeftFoot  -1.23105 -0.701419 7.92385
LeftToes  -8.4584e-011 5.90861e-011 8.40072e-012
223
root  -11.1357 37.2735 38.6119 -55.0841 72.7788 -53.0291
RightUpLeg  -10.2761 -6.27822 -9.15763
RightLeg  13.7632 10.9078 2.37202
RightFoot  14.9037 -5.35279 23.8226
RightToes  -5.82094e-011 -1.98785e-016 -5.10186e-018
Spine  20.9771 -1.39104 -4.63066
Spine1  0.387645 -4.23237 11.0578
HEad  -8.62426 -41.6732 19.9307
LeftShoulder1  1.79063 -3.33433 -19.6943
LeftArm  4.10716 14.8225 -47.9702
LeftForeArm  81.8642 -64.1766 -15.3484
LeftHand  0.30849 0.281666 -7.20101
RightShoulder  3.02937 6.68836 23.5396
RightArm  5.3214 -14.9255 38.9315
RightForeArm  34.2913 54.0044 12.6174
RightHand  -2.01712 10.3575 -15.1689
LeftUpLeg  -22.1074 -10.5383 12.2607
LeftLeg  78.9949 0.941321 7.86807
LeftFoot  -2.68548 -0.392014 5.38977
LeftToes  -8.4584e-011 5.90861e-011 8.40072e-012
224
root  -10.6279 37.8652 35.5808 -32.5585 64.6427 -30.7161
RightUpLeg  -13.9132 -5.72963 -10.2971
RightLeg  11.7084 2.44772 -1.28292
RightFoot  20.0624 -4.87139 17.4553
RightToes  -5.82094e-011 -1.98785e-016 -5.10186e-018
Spine  19.1483 -0.212001 -2.25837
Spine1  0.400195 -1.42176 6.16793
HEad  -6.38321 -36.8338 18.9104
LeftShoulder1  1.5769 -2.10924 -21.7803
LeftArm  -1.55881 22.0862 -46.562
LeftForeArm  81.1371 -63.6268 -14.9647
LeftHand  0.194967 0.22178 -4.38927
RightShoulder  3.55101 7.89064 25.0917
RightArm  6.16672 -11.0692 39.5714
RightForeArm  36.4217 54.4349 12.675
RightHand  -1.65546 11.237 -11.878
LeftUpLeg  -17.5532 -14.2925 12.1079
LeftLeg  69.9802 1.64357 5.91233
LeftFoot  -4.27423 -0.23503 4.29932
LeftToes  -8.4584e-011 5.90861e-011 8.40072e-012
225
root  -10.2981 37.9757 32.5735 -25.6974 56.0286 -22.247
RightUpLeg  -16.8876 -0.231078 -11.8563
RightLeg  18.4742 -13.7859 -5.32202
RightFoot  13.1441 -3.07009 14.6045
RightToes  -5.82094e-011 -1.98785e-016 -5.10186e-018
Spine  19.3372 0.522272 -1.00838
Spine1  1.83085 0.0387075 3.88458
HEad  -7.04509 -30.743 18.6642
LeftShoulder1  1.15644 -0.36115 -23.6155
LeftArm  -7.38756 27.1792 -46.9228
LeftForeArm  80.3744 -63.0442 -14.575
LeftHand  0.115264 1.14223 -3.38518
RightShoulder  3.87865 8.68409 25.7597
RightArm  7.77652 -4.61299 41.1873
RightForeArm  35.8524 53.389 12.1896
RightHand  -1.53436 10.528 -11.5225
LeftUpLeg  -12.0939 -19.9227 10.4497
LeftLeg  62.5001 2.29986 5.2924
LeftFoot  -6.48766 -0.14367 4.86411
LeftToes  -8.4584e-011 5.90861e-011 8.40072e-012
226
root  -10.0258 37.6126 29.572 -23.9148 48.3455 -17.7399
RightUpLeg  -18.8636 -1.72576 -11.4909
RightLeg  28.9235 -16.0747 -9.44807
RightFoot  13.2785 -2.75677 13.0403
RightToes  -5.82094e-011 -1.98785e-016 -5.10186e-018
Spine  21.0137 0.733425 0.0466658
Spine1  2.36083 0.970691 1.14465
HEad  -7.80137 -25.1758 17.6963
LeftShoulder1  0.936663 0.454234 -24.4481
LeftArm  -11.5836 31.4595 -47.6412
LeftForeArm  80.495 -62.0255 -13.8611
LeftHand  0.0908484 1.25549 -2.7754
RightShoulder  4.366 9.71468 27.0035
RightArm  8.8655 0.725089 42.0313
RightForeArm  37.0607 52.5547 11.672
RightHand  -1.85783 10.534 -13.8517
LeftUpLeg  -6.46464 -24.9269 7.38599
LeftLeg  56.7147 1.90398 3.96927
LeftFoot  -10.998 -0.0908577 1.15739
LeftToes  -8.4584e-011 5.90861e-011 8.40072e-012
227
root  -9.73487 36.9537 26.7256 -21.3774 41.0146 -13.2609
RightUpLeg  -22.6515 -2.12786 -11.6747
RightLeg  42.0801 -10.1736 -9.76487
RightFoot  9.34286 -2.15907 11.9879
RightToes  -5.82094e-011 -1.98785e-016 -5.10186e-018
Spine  21.8391 1.75526 -0.300946
Spine1  1.96368 2.29835 -1.72702
HEad  -8.12065 -20.9693 15.6991
LeftShoulder1  0.935821 0.434427 -24.2191
LeftArm  -14.7677 34.4393 -48.8334
LeftForeArm  80.5843 -60.2047 -12.6895
LeftHand  0.124269 1.25785 -3.77372
RightShoulder  4.8719 10.6231 28.5129
RightArm  7.85801 2.91157 42.3395
RightForeArm  39.4851 54.8217 12.6453
RightHand  -1.94115 10.2008 -14.7433
LeftUpLeg  -3.02666 -23.2632 4.60725
LeftLeg  51.1733 -2.94062 -3.58857
LeftFoot  -21.6533 -0.317705 -6.40484
LeftToes  -8.4584e-011 5.90861e-011 8.40072e-012
228
root  -9.50136 36.1858 23.9052 -18.3249 34.8778 -8.5265
RightUpLeg  -26.2754 -1.70262 -12.9566
RightLeg  56.2998 -5.60966 -9.85354
RightFoot  5.93525 -1.16883 8.03998
RightToes  -5.82094e-011 -1.98785e-016 -5.10186e-018
Spine  21.1655 3.12591 -2.45723
Spine1  3.36492 3.18911 -2.93725
HEad  -9.92035 -17.3649 14.4546
LeftShoulder1  0.779005 0.885788 -23.5129
LeftArm  -15.9092 35.2409 -49.0674
LeftForeArm  80.5627 -58.6023 -11.77
LeftHand  0.157043 1.8095 -5.51966
RightShoulder  5.10058 10.9966 29.2162
RightArm  7.35691 4.79061 43.5222
RightForeArm  39.4578 58.1727 14.585
RightHand  -2.00236 9.6175 -15.74
LeftUpLeg  -4.86028 -13.9416 1.41169
LeftLeg  50.1626 -3.29353 -3.7757
LeftFoot  -26.9765 0.219124 0.653497
LeftToes  -8.4584e-011 5.90861e-011 8.40072e-012
